<?xml version="1.0"?>
<svg xmlns="http://www.w3.org/2000/svg" xmlns:xlink="http://www.w3.org/1999/xlink" xmlns:svgjs="http://svgjs.com/svgjs" version="1.1" width="512" height="512" x="0" y="0" viewBox="0 0 512 512" style="enable-background:new 0 0 512 512" xml:space="preserve"><g><g xmlns="http://www.w3.org/2000/svg"><path d="m141.728 451.839 39.888-14.502 23.174-49.717-45.293-125.438-49.717-23.174-39.874 14.502-5.244 11.25-3.662-10.064v-28.696c0-48.424 17.853-93.684 47.181-127.819l11.918 11.918c15.3 15.601 39.901 17.401 58.2 4.501 45.601-32.1 109.801-32.1 155.402 0 17.986 12.658 43.312 10.919 58.2-4.501l11.918-11.918c29.328 34.135 47.181 79.395 47.181 127.819v28.696l-3.662 10.063-5.244-11.25-39.873-14.502-49.717 23.174-45.293 125.439 23.174 49.717 39.888 14.502 10.915-5.09-9.479 25.481c-2.168 5.845-7.822 9.771-14.063 9.771h-116.646v30h116.646c18.721 0 35.669-11.777 42.188-29.312 2.862-7.694 61.113-165.407 81.167-220.214v-36.475c-.001-124.072-100.929-226-225.001-226s-225 101.928-225 226v31.348l61.025 171.317z" fill="#ffffff" data-original="#000000"/></g></g></svg>
