<?xml version="1.0"?>
<svg xmlns="http://www.w3.org/2000/svg" xmlns:xlink="http://www.w3.org/1999/xlink" xmlns:svgjs="http://svgjs.com/svgjs" version="1.1" width="512" height="512" x="0" y="0" viewBox="0 0 512 512" style="enable-background:new 0 0 512 512" xml:space="preserve"><g><g xmlns="http://www.w3.org/2000/svg" id="_x31_7_Playing_Cards"><g><path d="m487.524 131.659-174.331-75.343c-15.816-6.793-34.171-.259-42.209 14.623v306.298c0 23.956-19.497 43.453-43.453 43.453h-75.55c.985.57 2.022 1.089 3.111 1.556l174.279 75.343c17.328 7.308 36.484-.877 43.557-17.267l131.863-305.105c7.208-16.802-.518-36.299-17.267-43.558zm-172.309-28.364 3.526 28.986-23.541 17.267-3.526-28.986zm12.186 347.314-3.578-28.934 23.541-17.267 3.526 28.934zm-36.816-102.618-10.941-88.981 72.387-53.098 10.837 89.032z" fill="#ffffff" data-original="#000000"/><path d="m227.531 11.722h-189.938c-18.252 0-33.082 14.83-33.082 33.082v332.432c0 18.252 14.83 33.082 33.082 33.082h189.939c18.252 0 33.082-14.83 33.082-33.082v-332.432c0-18.252-14.83-33.082-33.083-33.082zm-169.441 87.4s-21.521-11.5-21.521-28.2c0-6.405 5.212-11.636 11.636-11.636 4.193 0 7.847 2.212 9.885 5.52 2.039-3.308 5.712-5.52 9.867-5.52 6.443 0 11.636 5.231 11.636 11.636-.001 16.7-21.503 28.2-21.503 28.2zm74.497 161.871s-54.001-28.854-54.001-70.758c0-16.07 13.078-29.197 29.196-29.197 10.52 0 19.689 5.55 24.804 13.85 5.115-8.3 14.333-13.85 24.757-13.85 16.167 0 29.196 13.126 29.196 29.197.001 41.903-53.952 70.758-53.952 70.758zm74.469 101.752s-21.521-11.5-21.521-28.2c0-6.404 5.212-11.636 11.636-11.636 4.193 0 7.847 2.212 9.885 5.52 2.039-3.308 5.712-5.52 9.867-5.52 6.443 0 11.636 5.231 11.636 11.636-.001 16.7-21.503 28.2-21.503 28.2z" fill="#ffffff" data-original="#000000"/></g></g></g></svg>
